<mxfile host="65bd71144e">
    <diagram id="_GJ-_7GHHp8e7-I_J60H" name="Page-1">
        <mxGraphModel dx="1653" dy="658" grid="1" gridSize="10" guides="1" tooltips="1" connect="1" arrows="1" fold="1" page="1" pageScale="1" pageWidth="850" pageHeight="1100" math="0" shadow="0">
            <root>
                <mxCell id="0"/>
                <mxCell id="1" parent="0"/>
                <mxCell id="2" value="publication (post)" style="swimlane;fontStyle=0;childLayout=stackLayout;horizontal=1;startSize=26;fillColor=none;horizontalStack=0;resizeParent=1;resizeParentMax=0;resizeLast=0;collapsible=1;marginBottom=0;html=1;" parent="1" vertex="1">
                    <mxGeometry x="265" y="314" width="100" height="130" as="geometry"/>
                </mxCell>
                <mxCell id="3" value="post_id" style="text;strokeColor=none;fillColor=none;align=left;verticalAlign=top;spacingLeft=4;spacingRight=4;overflow=hidden;rotatable=0;points=[[0,0.5],[1,0.5]];portConstraint=eastwest;whiteSpace=wrap;html=1;" parent="2" vertex="1">
                    <mxGeometry y="26" width="100" height="26" as="geometry"/>
                </mxCell>
                <mxCell id="17" value="users_id" style="text;strokeColor=none;fillColor=none;align=left;verticalAlign=top;spacingLeft=4;spacingRight=4;overflow=hidden;rotatable=0;points=[[0,0.5],[1,0.5]];portConstraint=eastwest;whiteSpace=wrap;html=1;" parent="2" vertex="1">
                    <mxGeometry y="52" width="100" height="26" as="geometry"/>
                </mxCell>
                <mxCell id="166" value="parents_id" style="text;strokeColor=none;fillColor=none;align=left;verticalAlign=top;spacingLeft=4;spacingRight=4;overflow=hidden;rotatable=0;points=[[0,0.5],[1,0.5]];portConstraint=eastwest;whiteSpace=wrap;html=1;" parent="2" vertex="1">
                    <mxGeometry y="78" width="100" height="26" as="geometry"/>
                </mxCell>
                <mxCell id="5" value="body" style="text;strokeColor=none;fillColor=none;align=left;verticalAlign=top;spacingLeft=4;spacingRight=4;overflow=hidden;rotatable=0;points=[[0,0.5],[1,0.5]];portConstraint=eastwest;whiteSpace=wrap;html=1;" parent="2" vertex="1">
                    <mxGeometry y="104" width="100" height="26" as="geometry"/>
                </mxCell>
                <mxCell id="174" value="" style="endArrow=none;html=1;entryX=1;entryY=0.5;entryDx=0;entryDy=0;exitX=0.998;exitY=0.671;exitDx=0;exitDy=0;endFill=0;startArrow=none;startFill=0;exitPerimeter=0;" parent="2" source="166" target="3" edge="1">
                    <mxGeometry width="50" height="50" relative="1" as="geometry">
                        <mxPoint x="65" y="180" as="sourcePoint"/>
                        <mxPoint x="255" y="92" as="targetPoint"/>
                        <Array as="points">
                            <mxPoint x="195" y="96"/>
                            <mxPoint x="195" y="39"/>
                        </Array>
                    </mxGeometry>
                </mxCell>
                <mxCell id="6" value="Utilisateur (users)" style="swimlane;fontStyle=0;childLayout=stackLayout;horizontal=1;startSize=26;fillColor=none;horizontalStack=0;resizeParent=1;resizeParentMax=0;resizeLast=0;collapsible=1;marginBottom=0;html=1;" parent="1" vertex="1">
                    <mxGeometry x="-210" y="314" width="100" height="130" as="geometry"/>
                </mxCell>
                <mxCell id="96" value="users_id" style="text;strokeColor=none;fillColor=none;align=left;verticalAlign=top;spacingLeft=4;spacingRight=4;overflow=hidden;rotatable=0;points=[[0,0.5],[1,0.5]];portConstraint=eastwest;whiteSpace=wrap;html=1;" parent="6" vertex="1">
                    <mxGeometry y="26" width="100" height="26" as="geometry"/>
                </mxCell>
                <mxCell id="10" value="username" style="text;strokeColor=none;fillColor=none;align=left;verticalAlign=top;spacingLeft=4;spacingRight=4;overflow=hidden;rotatable=0;points=[[0,0.5],[1,0.5]];portConstraint=eastwest;whiteSpace=wrap;html=1;" parent="6" vertex="1">
                    <mxGeometry y="52" width="100" height="26" as="geometry"/>
                </mxCell>
                <mxCell id="11" value="login&amp;nbsp;" style="text;strokeColor=none;fillColor=none;align=left;verticalAlign=top;spacingLeft=4;spacingRight=4;overflow=hidden;rotatable=0;points=[[0,0.5],[1,0.5]];portConstraint=eastwest;whiteSpace=wrap;html=1;" parent="6" vertex="1">
                    <mxGeometry y="78" width="100" height="26" as="geometry"/>
                </mxCell>
                <mxCell id="12" value="pass" style="text;strokeColor=none;fillColor=none;align=left;verticalAlign=top;spacingLeft=4;spacingRight=4;overflow=hidden;rotatable=0;points=[[0,0.5],[1,0.5]];portConstraint=eastwest;whiteSpace=wrap;html=1;" parent="6" vertex="1">
                    <mxGeometry y="104" width="100" height="26" as="geometry"/>
                </mxCell>
                <mxCell id="39" style="html=1;startArrow=none;startFill=0;endArrow=classic;endFill=0;" parent="1" edge="1">
                    <mxGeometry relative="1" as="geometry">
                        <mxPoint x="65" y="379" as="sourcePoint"/>
                        <mxPoint x="-30" y="360" as="targetPoint"/>
                        <Array as="points">
                            <mxPoint x="10" y="380"/>
                            <mxPoint x="10" y="360"/>
                        </Array>
                    </mxGeometry>
                </mxCell>
                <mxCell id="45" value="Write" style="ellipse;whiteSpace=wrap;html=1;" parent="1" vertex="1">
                    <mxGeometry x="60" y="350" width="65" height="46" as="geometry"/>
                </mxCell>
                <mxCell id="69" value="Rôle (role)" style="swimlane;fontStyle=0;childLayout=stackLayout;horizontal=1;startSize=26;fillColor=none;horizontalStack=0;resizeParent=1;resizeParentMax=0;resizeLast=0;collapsible=1;marginBottom=0;html=1;" parent="1" vertex="1">
                    <mxGeometry x="-165" y="600" width="110" height="130" as="geometry"/>
                </mxCell>
                <mxCell id="80" value="role_id" style="text;strokeColor=none;fillColor=none;align=left;verticalAlign=top;spacingLeft=4;spacingRight=4;overflow=hidden;rotatable=0;points=[[0,0.5],[1,0.5]];portConstraint=eastwest;whiteSpace=wrap;html=1;" parent="69" vertex="1">
                    <mxGeometry y="26" width="110" height="26" as="geometry"/>
                </mxCell>
                <mxCell id="143" value="users_id" style="text;strokeColor=none;fillColor=none;align=left;verticalAlign=top;spacingLeft=4;spacingRight=4;overflow=hidden;rotatable=0;points=[[0,0.5],[1,0.5]];portConstraint=eastwest;whiteSpace=wrap;html=1;" parent="69" vertex="1">
                    <mxGeometry y="52" width="110" height="26" as="geometry"/>
                </mxCell>
                <mxCell id="70" value="Admin" style="text;strokeColor=none;fillColor=none;align=left;verticalAlign=top;spacingLeft=4;spacingRight=4;overflow=hidden;rotatable=0;points=[[0,0.5],[1,0.5]];portConstraint=eastwest;whiteSpace=wrap;html=1;" parent="69" vertex="1">
                    <mxGeometry y="78" width="110" height="26" as="geometry"/>
                </mxCell>
                <mxCell id="71" value="Modérateur" style="text;strokeColor=none;fillColor=none;align=left;verticalAlign=top;spacingLeft=4;spacingRight=4;overflow=hidden;rotatable=0;points=[[0,0.5],[1,0.5]];portConstraint=eastwest;whiteSpace=wrap;html=1;" parent="69" vertex="1">
                    <mxGeometry y="104" width="110" height="26" as="geometry"/>
                </mxCell>
                <mxCell id="91" value="" style="endArrow=none;html=1;endFill=0;startArrow=classic;startFill=0;entryX=0;entryY=0.5;entryDx=0;entryDy=0;" parent="1" target="143" edge="1">
                    <mxGeometry width="50" height="50" relative="1" as="geometry">
                        <mxPoint x="-110" y="470" as="sourcePoint"/>
                        <mxPoint x="-160" y="665" as="targetPoint"/>
                        <Array as="points">
                            <mxPoint x="-280" y="470"/>
                            <mxPoint x="-280" y="665"/>
                        </Array>
                    </mxGeometry>
                </mxCell>
                <mxCell id="92" value="Have" style="ellipse;whiteSpace=wrap;html=1;gradientColor=none;shadow=0;" parent="1" vertex="1">
                    <mxGeometry x="-310" y="584" width="60" height="47" as="geometry"/>
                </mxCell>
                <mxCell id="93" value="0-N" style="text;html=1;strokeColor=none;fillColor=none;align=center;verticalAlign=middle;whiteSpace=wrap;rounded=0;shadow=0;sketch=0;" parent="1" vertex="1">
                    <mxGeometry x="-330" y="631" width="60" height="30" as="geometry"/>
                </mxCell>
                <mxCell id="94" value="0-1" style="text;html=1;strokeColor=none;fillColor=none;align=center;verticalAlign=middle;whiteSpace=wrap;rounded=0;shadow=0;sketch=0;" parent="1" vertex="1">
                    <mxGeometry x="-330" y="550" width="60" height="30" as="geometry"/>
                </mxCell>
                <mxCell id="114" value="" style="endArrow=none;html=1;exitX=0;exitY=0.5;exitDx=0;exitDy=0;startArrow=none;startFill=0;endFill=0;entryX=0.992;entryY=0.633;entryDx=0;entryDy=0;entryPerimeter=0;" parent="1" source="17" target="45" edge="1">
                    <mxGeometry width="50" height="50" relative="1" as="geometry">
                        <mxPoint x="95" y="440" as="sourcePoint"/>
                        <mxPoint x="120" y="379" as="targetPoint"/>
                        <Array as="points"/>
                    </mxGeometry>
                </mxCell>
                <mxCell id="115" value="0-N" style="text;html=1;strokeColor=none;fillColor=none;align=center;verticalAlign=middle;whiteSpace=wrap;rounded=0;" parent="1" vertex="1">
                    <mxGeometry x="15" y="355" width="60" height="30" as="geometry"/>
                </mxCell>
                <mxCell id="116" value="1-1" style="text;html=1;strokeColor=none;fillColor=none;align=center;verticalAlign=middle;whiteSpace=wrap;rounded=0;" parent="1" vertex="1">
                    <mxGeometry x="115" y="355.5" width="60" height="30" as="geometry"/>
                </mxCell>
                <mxCell id="118" value="like" style="swimlane;fontStyle=0;childLayout=stackLayout;horizontal=1;startSize=26;fillColor=none;horizontalStack=0;resizeParent=1;resizeParentMax=0;resizeLast=0;collapsible=1;marginBottom=0;html=1;" parent="1" vertex="1">
                    <mxGeometry x="50" y="210" width="100" height="78" as="geometry"/>
                </mxCell>
                <mxCell id="120" value="post_id" style="text;strokeColor=none;fillColor=none;align=left;verticalAlign=top;spacingLeft=4;spacingRight=4;overflow=hidden;rotatable=0;points=[[0,0.5],[1,0.5]];portConstraint=eastwest;whiteSpace=wrap;html=1;" parent="118" vertex="1">
                    <mxGeometry y="26" width="100" height="26" as="geometry"/>
                </mxCell>
                <mxCell id="121" value="users_id" style="text;strokeColor=none;fillColor=none;align=left;verticalAlign=top;spacingLeft=4;spacingRight=4;overflow=hidden;rotatable=0;points=[[0,0.5],[1,0.5]];portConstraint=eastwest;whiteSpace=wrap;html=1;" parent="118" vertex="1">
                    <mxGeometry y="52" width="100" height="26" as="geometry"/>
                </mxCell>
                <mxCell id="124" value="" style="endArrow=none;html=1;startArrow=none;exitX=1.004;exitY=0.481;exitDx=0;exitDy=0;exitPerimeter=0;" parent="1" source="131" edge="1">
                    <mxGeometry width="50" height="50" relative="1" as="geometry">
                        <mxPoint x="-55" y="355" as="sourcePoint"/>
                        <mxPoint x="50" y="280" as="targetPoint"/>
                        <Array as="points"/>
                    </mxGeometry>
                </mxCell>
                <mxCell id="125" value="" style="endArrow=classic;html=1;exitX=0;exitY=0.158;exitDx=0;exitDy=0;endFill=0;entryX=0;entryY=0.5;entryDx=0;entryDy=0;exitPerimeter=0;" parent="1" source="127" target="3" edge="1">
                    <mxGeometry width="50" height="50" relative="1" as="geometry">
                        <mxPoint x="185" y="270" as="sourcePoint"/>
                        <mxPoint x="260" y="350" as="targetPoint"/>
                        <Array as="points">
                            <mxPoint x="200" y="255"/>
                            <mxPoint x="200" y="353"/>
                        </Array>
                    </mxGeometry>
                </mxCell>
                <mxCell id="126" value="Have" style="ellipse;whiteSpace=wrap;html=1;gradientColor=none;shadow=0;fillColor=#18141D;" parent="1" vertex="1">
                    <mxGeometry x="170" y="270" width="65" height="47" as="geometry"/>
                </mxCell>
                <mxCell id="127" value="0-1" style="text;html=1;strokeColor=none;fillColor=none;align=center;verticalAlign=middle;whiteSpace=wrap;rounded=0;" parent="1" vertex="1">
                    <mxGeometry x="150" y="250" width="60" height="30" as="geometry"/>
                </mxCell>
                <mxCell id="128" value="0-N" style="text;html=1;strokeColor=none;fillColor=none;align=center;verticalAlign=middle;whiteSpace=wrap;rounded=0;" parent="1" vertex="1">
                    <mxGeometry x="155" y="314" width="60" height="30" as="geometry"/>
                </mxCell>
                <mxCell id="133" value="" style="endArrow=none;html=1;entryX=0.5;entryY=1;entryDx=0;entryDy=0;endFill=0;startArrow=classic;startFill=0;exitX=1.007;exitY=0.744;exitDx=0;exitDy=0;exitPerimeter=0;" parent="1" source="96" target="131" edge="1">
                    <mxGeometry width="50" height="50" relative="1" as="geometry">
                        <mxPoint x="-55" y="355" as="sourcePoint"/>
                        <mxPoint x="50" y="280.9999999999999" as="targetPoint"/>
                        <Array as="points">
                            <mxPoint x="-15" y="360"/>
                        </Array>
                    </mxGeometry>
                </mxCell>
                <mxCell id="131" value="Have" style="ellipse;whiteSpace=wrap;html=1;fillColor=#18141D;" parent="1" vertex="1">
                    <mxGeometry x="-45" y="256" width="60" height="50" as="geometry"/>
                </mxCell>
                <mxCell id="134" value="0-1" style="text;html=1;strokeColor=none;fillColor=none;align=center;verticalAlign=middle;whiteSpace=wrap;rounded=0;" parent="1" vertex="1">
                    <mxGeometry x="-35" y="300" width="60" height="30" as="geometry"/>
                </mxCell>
                <mxCell id="135" value="1-1" style="text;html=1;strokeColor=none;fillColor=none;align=center;verticalAlign=middle;whiteSpace=wrap;rounded=0;" parent="1" vertex="1">
                    <mxGeometry y="256" width="60" height="30" as="geometry"/>
                </mxCell>
                <mxCell id="136" value="Groupes (groups)" style="swimlane;fontStyle=0;childLayout=stackLayout;horizontal=1;startSize=26;fillColor=none;horizontalStack=0;resizeParent=1;resizeParentMax=0;resizeLast=0;collapsible=1;marginBottom=0;html=1;" parent="1" vertex="1">
                    <mxGeometry x="75" y="454" width="100" height="130" as="geometry"/>
                </mxCell>
                <mxCell id="137" value="groups_id" style="text;strokeColor=none;fillColor=none;align=left;verticalAlign=top;spacingLeft=4;spacingRight=4;overflow=hidden;rotatable=0;points=[[0,0.5],[1,0.5]];portConstraint=eastwest;whiteSpace=wrap;html=1;" parent="136" vertex="1">
                    <mxGeometry y="26" width="100" height="26" as="geometry"/>
                </mxCell>
                <mxCell id="139" value="users_id" style="text;strokeColor=none;fillColor=none;align=left;verticalAlign=top;spacingLeft=4;spacingRight=4;overflow=hidden;rotatable=0;points=[[0,0.5],[1,0.5]];portConstraint=eastwest;whiteSpace=wrap;html=1;" parent="136" vertex="1">
                    <mxGeometry y="52" width="100" height="26" as="geometry"/>
                </mxCell>
                <mxCell id="140" value="role_id" style="text;strokeColor=none;fillColor=none;align=left;verticalAlign=top;spacingLeft=4;spacingRight=4;overflow=hidden;rotatable=0;points=[[0,0.5],[1,0.5]];portConstraint=eastwest;whiteSpace=wrap;html=1;" parent="136" vertex="1">
                    <mxGeometry y="78" width="100" height="26" as="geometry"/>
                </mxCell>
                <mxCell id="199" value="post_id" style="text;strokeColor=none;fillColor=none;align=left;verticalAlign=top;spacingLeft=4;spacingRight=4;overflow=hidden;rotatable=0;points=[[0,0.5],[1,0.5]];portConstraint=eastwest;whiteSpace=wrap;html=1;" vertex="1" parent="136">
                    <mxGeometry y="104" width="100" height="26" as="geometry"/>
                </mxCell>
                <mxCell id="144" value="" style="endArrow=classicThin;html=1;endFill=0;exitX=0.002;exitY=0.692;exitDx=0;exitDy=0;entryX=1.005;entryY=0.295;entryDx=0;entryDy=0;entryPerimeter=0;exitPerimeter=0;" parent="1" source="140" target="161" edge="1">
                    <mxGeometry width="50" height="50" relative="1" as="geometry">
                        <mxPoint x="-400" y="385" as="sourcePoint"/>
                        <mxPoint x="-430" y="380" as="targetPoint"/>
                        <Array as="points">
                            <mxPoint y="550"/>
                            <mxPoint y="533"/>
                        </Array>
                    </mxGeometry>
                </mxCell>
                <mxCell id="145" value="" style="endArrow=none;html=1;startArrow=none;exitX=0;exitY=0.5;exitDx=0;exitDy=0;" parent="1" source="161" edge="1">
                    <mxGeometry width="50" height="50" relative="1" as="geometry">
                        <mxPoint x="-140" y="550" as="sourcePoint"/>
                        <mxPoint x="-100" y="360" as="targetPoint"/>
                        <Array as="points">
                            <mxPoint x="-170" y="539"/>
                            <mxPoint x="-170" y="470"/>
                            <mxPoint x="-70" y="470"/>
                            <mxPoint x="-70" y="360"/>
                        </Array>
                    </mxGeometry>
                </mxCell>
                <mxCell id="154" value="0-N" style="text;html=1;strokeColor=none;fillColor=none;align=center;verticalAlign=middle;whiteSpace=wrap;rounded=0;" parent="1" vertex="1">
                    <mxGeometry x="230" y="550" width="60" height="30" as="geometry"/>
                </mxCell>
                <mxCell id="159" value="user_groups" style="swimlane;fontStyle=0;childLayout=stackLayout;horizontal=1;startSize=30;horizontalStack=0;resizeParent=1;resizeParentMax=0;resizeLast=0;collapsible=1;marginBottom=0;whiteSpace=wrap;html=1;" parent="1" vertex="1">
                    <mxGeometry x="-145" y="494" width="70" height="90" as="geometry"/>
                </mxCell>
                <mxCell id="161" value="role_id" style="text;strokeColor=none;fillColor=none;align=left;verticalAlign=middle;spacingLeft=4;spacingRight=4;overflow=hidden;points=[[0,0.5],[1,0.5]];portConstraint=eastwest;rotatable=0;whiteSpace=wrap;html=1;" parent="159" vertex="1">
                    <mxGeometry y="30" width="70" height="30" as="geometry"/>
                </mxCell>
                <mxCell id="162" value="users_id" style="text;strokeColor=none;fillColor=none;align=left;verticalAlign=middle;spacingLeft=4;spacingRight=4;overflow=hidden;points=[[0,0.5],[1,0.5]];portConstraint=eastwest;rotatable=0;whiteSpace=wrap;html=1;" parent="159" vertex="1">
                    <mxGeometry y="60" width="70" height="30" as="geometry"/>
                </mxCell>
                <mxCell id="175" value="" style="endArrow=none;html=1;exitX=1;exitY=0.5;exitDx=0;exitDy=0;endFill=0;startArrow=classic;startFill=0;" parent="1" edge="1">
                    <mxGeometry width="50" height="50" relative="1" as="geometry">
                        <mxPoint x="-55" y="638" as="sourcePoint"/>
                        <mxPoint x="70" y="550" as="targetPoint"/>
                        <Array as="points">
                            <mxPoint y="638"/>
                            <mxPoint y="550"/>
                        </Array>
                    </mxGeometry>
                </mxCell>
                <mxCell id="176" value="Have" style="ellipse;whiteSpace=wrap;html=1;gradientColor=none;shadow=0;fillColor=#18141D;" parent="1" vertex="1">
                    <mxGeometry x="440" y="355.5" width="65" height="47" as="geometry"/>
                </mxCell>
                <mxCell id="177" value="1-1" style="text;html=1;strokeColor=none;fillColor=none;align=center;verticalAlign=middle;whiteSpace=wrap;rounded=0;" parent="1" vertex="1">
                    <mxGeometry x="395" y="350" width="60" height="30" as="geometry"/>
                </mxCell>
                <mxCell id="178" value="0-N" style="text;html=1;strokeColor=none;fillColor=none;align=center;verticalAlign=middle;whiteSpace=wrap;rounded=0;" parent="1" vertex="1">
                    <mxGeometry x="395" y="385" width="60" height="30" as="geometry"/>
                </mxCell>
                <mxCell id="179" value="Followers" style="swimlane;fontStyle=0;childLayout=stackLayout;horizontal=1;startSize=30;horizontalStack=0;resizeParent=1;resizeParentMax=0;resizeLast=0;collapsible=1;marginBottom=0;whiteSpace=wrap;html=1;" parent="1" vertex="1">
                    <mxGeometry x="-240" y="150" width="140" height="90" as="geometry"/>
                </mxCell>
                <mxCell id="180" value="following_id" style="text;strokeColor=none;fillColor=none;align=left;verticalAlign=middle;spacingLeft=4;spacingRight=4;overflow=hidden;points=[[0,0.5],[1,0.5]];portConstraint=eastwest;rotatable=0;whiteSpace=wrap;html=1;" parent="179" vertex="1">
                    <mxGeometry y="30" width="140" height="30" as="geometry"/>
                </mxCell>
                <mxCell id="181" value="followed_id" style="text;strokeColor=none;fillColor=none;align=left;verticalAlign=middle;spacingLeft=4;spacingRight=4;overflow=hidden;points=[[0,0.5],[1,0.5]];portConstraint=eastwest;rotatable=0;whiteSpace=wrap;html=1;" parent="179" vertex="1">
                    <mxGeometry y="60" width="140" height="30" as="geometry"/>
                </mxCell>
                <mxCell id="185" value="" style="endArrow=classic;html=1;rounded=0;" parent="1" edge="1">
                    <mxGeometry width="50" height="50" relative="1" as="geometry">
                        <mxPoint x="-170" y="525" as="sourcePoint"/>
                        <mxPoint x="-170" y="485" as="targetPoint"/>
                    </mxGeometry>
                </mxCell>
                <mxCell id="186" value="" style="endArrow=classic;html=1;rounded=0;" parent="1" edge="1">
                    <mxGeometry width="50" height="50" relative="1" as="geometry">
                        <mxPoint x="-280.08000000000004" y="549.9999999999999" as="sourcePoint"/>
                        <mxPoint x="-280.08000000000004" y="509.9999999999999" as="targetPoint"/>
                    </mxGeometry>
                </mxCell>
                <mxCell id="188" value="" style="endArrow=none;html=1;rounded=1;entryX=0;entryY=0.9;entryDx=0;entryDy=0;entryPerimeter=0;exitX=0;exitY=0.5;exitDx=0;exitDy=0;" parent="1" source="96" target="180" edge="1">
                    <mxGeometry width="50" height="50" relative="1" as="geometry">
                        <mxPoint x="-320" y="290" as="sourcePoint"/>
                        <mxPoint x="-350" y="220" as="targetPoint"/>
                        <Array as="points">
                            <mxPoint x="-280" y="353"/>
                            <mxPoint x="-280" y="207"/>
                        </Array>
                    </mxGeometry>
                </mxCell>
                <mxCell id="189" value="" style="endArrow=none;html=1;rounded=1;entryX=0.995;entryY=-0.117;entryDx=0;entryDy=0;entryPerimeter=0;" parent="1" target="181" edge="1">
                    <mxGeometry width="50" height="50" relative="1" as="geometry">
                        <mxPoint x="-100" y="360" as="sourcePoint"/>
                        <mxPoint x="70" y="240" as="targetPoint"/>
                        <Array as="points">
                            <mxPoint x="-70" y="360"/>
                            <mxPoint x="-70" y="206"/>
                        </Array>
                    </mxGeometry>
                </mxCell>
                <mxCell id="191" value="" style="endArrow=none;html=1;rounded=1;exitX=0;exitY=0.532;exitDx=0;exitDy=0;exitPerimeter=0;" parent="1" source="139" edge="1">
                    <mxGeometry width="50" height="50" relative="1" as="geometry">
                        <mxPoint x="15" y="470" as="sourcePoint"/>
                        <mxPoint x="-30" y="360" as="targetPoint"/>
                        <Array as="points">
                            <mxPoint x="-10" y="520"/>
                            <mxPoint x="-10" y="360"/>
                        </Array>
                    </mxGeometry>
                </mxCell>
                <mxCell id="192" value="" style="endArrow=classic;html=1;rounded=1;" parent="1" edge="1">
                    <mxGeometry width="50" height="50" relative="1" as="geometry">
                        <mxPoint x="-280" y="320" as="sourcePoint"/>
                        <mxPoint x="-280" y="270" as="targetPoint"/>
                    </mxGeometry>
                </mxCell>
                <mxCell id="193" value="" style="endArrow=classic;html=1;rounded=1;" parent="1" edge="1">
                    <mxGeometry width="50" height="50" relative="1" as="geometry">
                        <mxPoint x="-70" y="260" as="sourcePoint"/>
                        <mxPoint x="-70" y="330" as="targetPoint"/>
                    </mxGeometry>
                </mxCell>
                <mxCell id="194" value="" style="endArrow=classic;html=1;rounded=1;" parent="1" edge="1">
                    <mxGeometry width="50" height="50" relative="1" as="geometry">
                        <mxPoint x="-10" y="480" as="sourcePoint"/>
                        <mxPoint x="-10" y="430" as="targetPoint"/>
                    </mxGeometry>
                </mxCell>
                <mxCell id="195" value="" style="endArrow=classic;html=1;rounded=1;" parent="1" edge="1">
                    <mxGeometry width="50" height="50" relative="1" as="geometry">
                        <mxPoint x="60" y="550" as="sourcePoint"/>
                        <mxPoint x="20" y="550" as="targetPoint"/>
                    </mxGeometry>
                </mxCell>
                <mxCell id="197" value="" style="endArrow=classic;html=1;rounded=1;" parent="1" edge="1">
                    <mxGeometry width="50" height="50" relative="1" as="geometry">
                        <mxPoint x="250" y="378.95" as="sourcePoint"/>
                        <mxPoint x="200" y="378.95" as="targetPoint"/>
                    </mxGeometry>
                </mxCell>
                <mxCell id="200" value="" style="endArrow=classic;html=1;exitX=1;exitY=0.5;exitDx=0;exitDy=0;endFill=0;startArrow=none;startFill=0;entryX=1.01;entryY=0.311;entryDx=0;entryDy=0;entryPerimeter=0;" edge="1" parent="1" source="199" target="3">
                    <mxGeometry width="50" height="50" relative="1" as="geometry">
                        <mxPoint x="174.99999999999977" y="571" as="sourcePoint"/>
                        <mxPoint x="490" y="340" as="targetPoint"/>
                        <Array as="points">
                            <mxPoint x="520" y="571"/>
                            <mxPoint x="520" y="350"/>
                        </Array>
                    </mxGeometry>
                </mxCell>
                <mxCell id="155" value="0-1" style="text;html=1;strokeColor=none;fillColor=none;align=center;verticalAlign=middle;whiteSpace=wrap;rounded=0;" parent="1" vertex="1">
                    <mxGeometry x="310" y="550" width="60" height="30" as="geometry"/>
                </mxCell>
                <mxCell id="202" value="Have" style="ellipse;whiteSpace=wrap;html=1;" vertex="1" parent="1">
                    <mxGeometry x="270" y="550" width="60" height="50" as="geometry"/>
                </mxCell>
            </root>
        </mxGraphModel>
    </diagram>
</mxfile>